<?xml version="1.0" encoding="UTF-8" standalone="no"?><!DOCTYPE svg PUBLIC "-//W3C//DTD SVG 1.1//EN" "http://www.w3.org/Graphics/SVG/1.1/DTD/svg11.dtd"><svg width="100%" height="100%" viewBox="0 0 1368 1368" version="1.1" xmlns="http://www.w3.org/2000/svg" xmlns:xlink="http://www.w3.org/1999/xlink" xml:space="preserve" xmlns:serif="http://www.serif.com/" style="fill-rule:evenodd;clip-rule:evenodd;stroke-linejoin:round;stroke-miterlimit:2;"><path d="M93.169,1207.459l1069.012,-1069.012l112.091,-45.277l-45.277,112.091l-1069.012,1069.012l-66.813,-66.813Z" style="fill-rule:nonzero;"/><path d="M1138.714,102.989l119.952,-48.453l54.239,54.239l-48.453,119.952l-1104.47,1104.47l-125.739,-125.739l1104.47,-1104.47Zm-1045.545,1104.47l66.813,66.813l1069.012,-1069.012l45.277,-112.091l-112.091,45.277l-1069.012,1069.012Z"/><path d="M234.902,93.169l1039.37,0l0,94.488l-1039.37,-0l0,-94.488Z" style="fill-rule:nonzero;"/><path d="M1315.939,51.503l-0,177.822l-1122.703,0l0,-177.822l1122.703,0Zm-1081.037,41.667l0,94.488l1039.37,0l-0,-94.488l-1039.37,-0Z"/><path d="M1179.784,1132.54l0,-956.22l94.488,-83.15l-0,1039.37l-94.488,0Z" style="fill-rule:nonzero;"/><path d="M1138.117,157.483l108.629,-95.593l69.193,31.28l-0,1081.037l-177.822,-0l0,-1016.723Zm41.667,975.057l94.488,0l0,-1039.37l-94.488,83.15l0,956.22Z"/></svg>