<?xml version="1.0" encoding="UTF-8" standalone="no"?><!DOCTYPE svg PUBLIC "-//W3C//DTD SVG 1.1//EN" "http://www.w3.org/Graphics/SVG/1.1/DTD/svg11.dtd"><svg width="100%" height="100%" viewBox="0 0 3165 946" version="1.1" xmlns="http://www.w3.org/2000/svg" xmlns:xlink="http://www.w3.org/1999/xlink" xml:space="preserve" xmlns:serif="http://www.serif.com/" style="fill-rule:evenodd;clip-rule:evenodd;stroke-linejoin:round;stroke-miterlimit:2;"><g><path d="M228.92,709.257l0,-472.584l72.857,0l346.562,412.198l0,-412.198l53.166,0l0,472.584l-72.857,0l-346.562,-412.198l0,412.198l-53.166,0Z" style="fill:#fff;fill-rule:nonzero;"/><path d="M208.087,215.839l103.392,-0l316.026,375.879l0,-375.879l94.832,-0l0,514.251l-103.392,0l-316.026,-375.879l0,375.879l-94.832,0l-0,-514.251Zm20.833,493.417l53.166,0l0,-412.198l346.562,412.198l72.857,0l0,-472.584l-53.166,0l0,412.198l-346.562,-412.198l-72.857,0l0,472.584Z" style="fill:#fff;"/><path d="M847.667,710.187l0,-472.584l431.233,0l0,53.166l-378.067,0l0,156.215l303.898,0l0,53.822l-303.898,0l0,156.215l378.067,0l0,53.166l-431.233,0Z" style="fill:#fff;fill-rule:nonzero;"/><path d="M826.834,216.77l472.9,0l0,94.832l-378.067,-0l0,114.549l303.898,0l0,95.489l-303.898,-0l-0,114.549l378.067,0l0,94.832l-472.9,0l-0,-514.251Zm20.833,493.417l431.233,0l0,-53.166l-378.067,0l0,-156.215l303.898,0l0,-53.822l-303.898,0l0,-156.215l378.067,0l0,-53.166l-431.233,0l0,472.584Z" style="fill:#fff;"/><path d="M1350.661,899.345l0,-52.974l196.905,-373.405l-196.905,-374.698l0,-51.682l51.682,-0l25.841,51.682l154.169,312.517l155.926,-312.517l25.841,-51.682l51.682,-0l0,51.682l-199.318,374.698l199.318,374.698l0,51.682l-51.682,-0l-25.841,-51.682l-155.926,-312.517l-154.169,312.517l-25.841,51.682l-51.682,0Z" style="fill:#fff;fill-rule:nonzero;"/><path d="M1329.828,841.214l194.195,-368.266l-194.195,-369.54l0,-77.656l85.391,-0l31.624,63.249l135.616,274.908l137.182,-274.95l31.603,-63.207l85.391,-0l-0,77.712l-196.554,369.501l196.554,369.501l-0,77.712l-85.391,-0l-31.603,-63.207l-137.182,-274.95l-135.616,274.908l-31.624,63.249l-85.391,0l0,-78.964Zm20.833,58.131l51.682,0l25.841,-51.682l154.169,-312.517l155.926,312.517l25.841,51.682l51.682,0l-0,-51.682l-199.318,-374.698l199.318,-374.698l0,-51.682l-51.682,0l-25.841,51.682l-155.926,312.517l-154.169,-312.517l-25.841,-51.682l-51.682,0l-0,51.682l196.905,374.698l-196.905,373.405l0,52.974Z" style="fill:#fff;"/><path d="M1965.45,709.257c-14.44,0 -27.677,-3.501 -39.71,-10.502c-12.033,-7.001 -21.551,-16.519 -28.552,-28.552c-7.001,-12.033 -10.502,-25.27 -10.502,-39.71l0,-393.82l53.166,0l0,393.82c0,7.001 2.516,13.018 7.548,18.05c5.032,5.032 11.049,7.548 18.05,7.548l315.056,0c7.001,0 13.018,-2.516 18.05,-7.548c5.032,-5.032 7.548,-11.049 7.548,-18.05l0,-393.82l53.166,0l0,393.82c0,14.44 -3.501,27.677 -10.502,39.71c-7.001,12.033 -16.519,21.551 -28.552,28.552c-12.033,7.001 -25.27,10.502 -39.71,10.502l-315.056,0Z" style="fill:#fff;fill-rule:nonzero;"/><path d="M1965.45,730.09c-18.255,0 -34.975,-4.477 -50.187,-13.328c-15.207,-8.848 -27.235,-20.875 -36.082,-36.082c-8.851,-15.212 -13.328,-31.932 -13.328,-50.187l0,-414.653l94.832,-0l0,414.653c0,1.295 0.515,2.388 1.446,3.319c0.931,0.931 2.023,1.446 3.319,1.446l315.056,0c1.295,0 2.388,-0.515 3.319,-1.446c0.931,-0.931 1.446,-2.023 1.446,-3.319l0,-414.653l94.832,-0l-0,414.653c0,18.255 -4.477,34.975 -13.328,50.187c-8.848,15.207 -20.875,27.235 -36.082,36.082c-15.212,8.851 -31.932,13.328 -50.187,13.328l-315.056,0Zm-0,-20.833l315.056,0c14.44,0 27.677,-3.501 39.71,-10.502c12.033,-7.001 21.551,-16.519 28.552,-28.552c7.001,-12.033 10.502,-25.27 10.502,-39.71l0,-393.82l-53.166,0l0,393.82c0,7.001 -2.516,13.018 -7.548,18.05c-5.032,5.032 -11.049,7.548 -18.05,7.548l-315.056,0c-7.001,0 -13.018,-2.516 -18.05,-7.548c-5.032,-5.032 -7.548,-11.049 -7.548,-18.05l0,-393.82l-53.166,0l0,393.82c0,14.44 3.501,27.677 10.502,39.71c7.001,12.033 16.519,21.551 28.552,28.552c12.033,7.001 25.27,10.502 39.71,10.502Z" style="fill:#fff;"/><path d="M2557.265,709.257c-14.44,0 -27.677,-3.501 -39.71,-10.502c-12.033,-7.001 -21.551,-16.519 -28.552,-28.552c-7.001,-12.033 -10.502,-25.27 -10.502,-39.71l0,-18.378l53.166,0l0,18.378c0,7.001 2.516,13.018 7.548,18.05c5.032,5.032 11.049,7.548 18.05,7.548l315.056,0c7.001,0 13.018,-2.516 18.05,-7.548c5.032,-5.032 7.548,-11.049 7.548,-18.05l0,-105.675c0,-7.001 -2.516,-12.909 -7.548,-17.722c-5.032,-4.813 -11.049,-7.22 -18.05,-7.22l-315.056,0c-14.44,0 -27.677,-3.61 -39.71,-10.83c-12.033,-7.22 -21.551,-16.737 -28.552,-28.552c-7.001,-11.815 -10.502,-24.942 -10.502,-39.382l0,-105.675c0,-14.44 3.501,-27.677 10.502,-39.71c7.001,-12.033 16.519,-21.551 28.552,-28.552c12.033,-7.001 25.27,-10.502 39.71,-10.502l315.056,0c14.44,0 27.677,3.501 39.71,10.502c12.033,7.001 21.551,16.519 28.552,28.552c7.001,12.033 10.502,25.27 10.502,39.71l0,18.378l-53.166,0l0,-18.378c0,-7.001 -2.516,-13.018 -7.548,-18.05c-5.032,-5.032 -11.049,-7.548 -18.05,-7.548l-315.056,0c-7.001,0 -13.018,2.516 -18.05,7.548c-5.032,5.032 -7.548,11.049 -7.548,18.05l0,105.675c0,7.001 2.516,12.909 7.548,17.722c5.032,4.813 11.049,7.22 18.05,7.22l315.056,0c14.44,0 27.677,3.61 39.71,10.83c12.033,7.22 21.551,16.737 28.552,28.552c7.001,11.815 10.502,24.942 10.502,39.382l0,105.675c0,14.44 -3.501,27.677 -10.502,39.71c-7.001,12.033 -16.519,21.551 -28.552,28.552c-12.033,7.001 -25.27,10.502 -39.71,10.502l-315.056,0Z" style="fill:#fff;fill-rule:nonzero;"/><path d="M2557.265,730.09c-18.255,0 -34.975,-4.477 -50.187,-13.328c-15.207,-8.848 -27.235,-20.875 -36.082,-36.082c-8.851,-15.212 -13.328,-31.932 -13.328,-50.187l0,-39.212l94.832,0l0,39.212c0,1.295 0.515,2.388 1.446,3.319c0.931,0.931 2.023,1.446 3.319,1.446l315.056,0c1.295,0 2.388,-0.515 3.319,-1.446c0.931,-0.931 1.446,-2.023 1.446,-3.319l0,-105.675c0,-1.051 -0.36,-1.945 -1.115,-2.667c-1.016,-0.972 -2.236,-1.442 -3.65,-1.442l-315.056,0c-18.342,0 -35.144,-4.628 -50.429,-13.799c-15.078,-9.047 -26.983,-20.992 -35.756,-35.796c-8.893,-15.007 -13.412,-31.661 -13.412,-50.003l0,-105.675c0,-18.255 4.477,-34.975 13.328,-50.187c8.848,-15.207 20.875,-27.235 36.082,-36.082c15.212,-8.851 31.932,-13.328 50.187,-13.328l315.056,0c18.255,0 34.975,4.477 50.187,13.328c15.207,8.848 27.235,20.875 36.082,36.082c8.851,15.212 13.328,31.932 13.328,50.187l0,39.212l-94.832,0l0,-39.212c0,-1.295 -0.515,-2.388 -1.446,-3.319c-0.931,-0.931 -2.023,-1.446 -3.319,-1.446l-315.056,0c-1.295,0 -2.388,0.515 -3.319,1.446c-0.931,0.931 -1.446,2.023 -1.446,3.319l0,105.675c0,1.051 0.36,1.945 1.115,2.667c1.016,0.972 2.236,1.442 3.65,1.442l315.056,0c18.342,0 35.144,4.628 50.429,13.799c15.078,9.047 26.983,20.992 35.756,35.796c8.893,15.007 13.412,31.661 13.412,50.003l0,105.675c0,18.255 -4.477,34.975 -13.328,50.187c-8.848,15.207 -20.875,27.235 -36.082,36.082c-15.212,8.851 -31.932,13.328 -50.187,13.328l-315.056,0Zm-0,-20.833l315.056,0c14.44,0 27.677,-3.501 39.71,-10.502c12.033,-7.001 21.551,-16.519 28.552,-28.552c7.001,-12.033 10.502,-25.27 10.502,-39.71l0,-105.675c0,-14.44 -3.501,-27.567 -10.502,-39.382c-7.001,-11.815 -16.519,-21.332 -28.552,-28.552c-12.033,-7.22 -25.27,-10.83 -39.71,-10.83l-315.056,0c-7.001,0 -13.018,-2.407 -18.05,-7.22c-5.032,-4.813 -7.548,-10.721 -7.548,-17.722l0,-105.675c0,-7.001 2.516,-13.018 7.548,-18.05c5.032,-5.032 11.049,-7.548 18.05,-7.548l315.056,0c7.001,0 13.018,2.516 18.05,7.548c5.032,5.032 7.548,11.049 7.548,18.05l0,18.378l53.166,0l0,-18.378c0,-14.44 -3.501,-27.677 -10.502,-39.71c-7.001,-12.033 -16.519,-21.551 -28.552,-28.552c-12.033,-7.001 -25.27,-10.502 -39.71,-10.502l-315.056,0c-14.44,0 -27.677,3.501 -39.71,10.502c-12.033,7.001 -21.551,16.519 -28.552,28.552c-7.001,12.033 -10.502,25.27 -10.502,39.71l0,105.675c0,14.44 3.501,27.567 10.502,39.382c7.001,11.815 16.519,21.332 28.552,28.552c12.033,7.22 25.27,10.83 39.71,10.83l315.056,0c7.001,0 13.018,2.407 18.05,7.22c5.032,4.813 7.548,10.721 7.548,17.722l0,105.675c0,7.001 -2.516,13.018 -7.548,18.05c-5.032,5.032 -11.049,7.548 -18.05,7.548l-315.056,0c-7.001,0 -13.018,-2.516 -18.05,-7.548c-5.032,-5.032 -7.548,-11.049 -7.548,-18.05l0,-18.378l-53.166,0l0,18.378c0,14.44 3.501,27.677 10.502,39.71c7.001,12.033 16.519,21.551 28.552,28.552c12.033,7.001 25.27,10.502 39.71,10.502Z" style="fill:#fff;"/><path d="M1376.503,847.662l0,51.682l-1252.394,0l-77.524,-64.603l0,-723.554l77.524,-64.603c0,0 1237.954,-0 1252.394,-0l0,51.682c-0.355,0 -1278.235,0 -1278.235,0l0,749.395l1278.235,0Z" style="fill:#fff;fill-rule:nonzero;"/><path d="M1397.336,920.178l-1280.77,0l-90.814,-75.679l-0,-743.07l90.814,-75.679l1280.77,-0l-0,93.349l-1273.228,0l-5.008,0l0,707.728l1278.235,0l-0,93.349Zm-20.833,-72.516l-1278.235,0l0,-749.395l1278.235,-0l0,-51.682l-1252.394,0l-77.524,64.603l0,723.554l77.524,64.603l1252.394,-0l0,-51.682Z" style="fill:#fff;"/><path d="M1802.883,98.267l0,-51.682l1237.045,0l77.524,64.603l0,723.554l-77.524,64.603l-1249.965,0l0,-51.682c7.001,0 1275.806,-0 1275.806,-0l0,-749.395l-1262.886,-0Z" style="fill:#fff;fill-rule:nonzero;"/><path d="M1782.049,25.751l1265.421,0l90.814,75.679l0,743.07l-90.814,75.679l-1278.341,0l0,-93.349l1270.799,0l5.008,-0l-0,-707.728l-1262.886,-0l0,-93.349Zm20.833,72.516l1262.886,0l0,749.395l-1275.806,0l0,51.682l1249.965,-0l77.524,-64.603l0,-723.554l-77.524,-64.603l-1237.045,0l0,51.682Z" style="fill:#fff;"/></g></svg>