<?xml version="1.0" encoding="UTF-8" standalone="no"?><!DOCTYPE svg PUBLIC "-//W3C//DTD SVG 1.1//EN" "http://www.w3.org/Graphics/SVG/1.1/DTD/svg11.dtd"><svg width="100%" height="100%" viewBox="0 0 3784 853" version="1.1" xmlns="http://www.w3.org/2000/svg" xmlns:xlink="http://www.w3.org/1999/xlink" xml:space="preserve" xmlns:serif="http://www.serif.com/" style="fill-rule:evenodd;clip-rule:evenodd;stroke-linejoin:round;stroke-miterlimit:2;"><g><path d="M272.778,661.571l0,-470.204l72.49,0l344.816,410.122l0,-410.122l52.898,0l0,470.204l-72.49,0l-344.816,-410.122l0,410.122l-52.898,0Z" style="fill:#fff;fill-rule:nonzero;"/><path d="M271.778,190.367l73.956,0l343.351,408.379l0,-408.379l54.898,0l0,472.204l-73.956,-0l-343.351,-408.379l0,408.379l-54.898,-0l-0,-472.204Zm1,471.204l52.898,0l0,-410.122l344.816,410.122l72.49,0l0,-470.204l-52.898,0l0,410.122l-344.816,-410.122l-72.49,0l0,470.204Z" style="fill:#fff;"/><path d="M1026.149,661.571l0,-470.204l429.061,0l0,52.898l-376.163,0l0,155.429l302.367,0l0,53.551l-302.367,0l0,155.429l376.163,0l0,52.898l-429.061,0Z" style="fill:#fff;fill-rule:nonzero;"/><path d="M1025.149,190.367l431.061,0l0,54.898l-376.163,-0l-0,153.429l302.367,0l0,55.551l-302.367,-0l0,153.429l376.163,-0l0,54.898l-431.061,-0l0,-472.204Zm1,471.204l429.061,0l0,-52.898l-376.163,0l0,-155.429l302.367,0l0,-53.551l-302.367,0l0,-155.429l376.163,0l0,-52.898l-429.061,0l0,470.204Z" style="fill:#fff;"/><path d="M1661.037,850.701l0,-52.708l195.913,-371.525l-195.913,-372.811l0,-51.422l51.422,-0l25.711,51.422l153.392,310.943l155.141,-310.943l25.711,-51.422l51.422,-0l0,51.422l-198.315,372.811l198.315,372.811l0,51.422l-51.422,-0l-25.711,-51.422l-155.141,-310.943l-153.392,310.943l-25.711,51.422l-51.422,0Z" style="fill:#fff;fill-rule:nonzero;"/><path d="M1660.037,797.746l195.783,-371.278l-195.783,-372.563l-0,-52.669l53.04,-0l25.989,51.977l152.502,309.138l154.241,-309.14l25.988,-51.975l53.04,-0l-0,52.672l-198.182,372.561l198.182,372.561l-0,52.672l-53.04,0l-25.988,-51.975l-154.241,-309.14l-152.502,309.138l-25.989,51.977l-53.04,0l-0,-53.955Zm1,52.955l51.422,0l25.711,-51.422l153.392,-310.943l155.141,310.943l25.711,51.422l51.422,0l-0,-51.422l-198.315,-372.811l198.315,-372.811l0,-51.422l-51.422,0l-25.711,51.422l-155.141,310.943l-153.392,-310.943l-25.711,-51.422l-51.422,0l-0,51.422l195.913,372.811l-195.913,371.525l0,52.708Z" style="fill:#fff;"/><path d="M2387.459,661.571c-14.367,0 -27.537,-3.483 -39.51,-10.449c-11.973,-6.966 -21.442,-16.435 -28.408,-28.408c-6.966,-11.973 -10.449,-25.143 -10.449,-39.51l0,-391.837l52.898,0l0,391.837c0,6.966 2.503,12.952 7.51,17.959c5.007,5.007 10.993,7.51 17.959,7.51l313.469,0c6.966,0 12.952,-2.503 17.959,-7.51c5.007,-5.007 7.51,-10.993 7.51,-17.959l0,-391.837l52.898,0l0,391.837c0,14.367 -3.483,27.537 -10.449,39.51c-6.966,11.973 -16.435,21.442 -28.408,28.408c-11.973,6.966 -25.143,10.449 -39.51,10.449l-313.469,0Z" style="fill:#fff;fill-rule:nonzero;"/><path d="M2387.459,662.571c-14.55,-0 -27.888,-3.53 -40.013,-10.585c-12.125,-7.055 -21.715,-16.644 -28.77,-28.77c-7.055,-12.125 -10.585,-25.463 -10.585,-40.013l0,-392.837l54.898,0l-0,392.837c0,6.692 2.407,12.442 7.217,17.252c4.81,4.81 10.56,7.217 17.252,7.217l313.469,0c6.692,0 12.442,-2.407 17.252,-7.217c4.81,-4.81 7.217,-10.56 7.217,-17.252l0,-392.837l54.898,0l-0,392.837c0,14.55 -3.53,27.888 -10.585,40.013c-7.055,12.125 -16.644,21.715 -28.77,28.77c-12.125,7.055 -25.463,10.585 -40.013,10.585l-313.469,-0Zm0,-1l313.469,0c14.367,0 27.537,-3.483 39.51,-10.449c11.973,-6.966 21.442,-16.435 28.408,-28.408c6.966,-11.973 10.449,-25.143 10.449,-39.51l0,-391.837l-52.898,0l0,391.837c0,6.966 -2.503,12.952 -7.51,17.959c-5.007,5.007 -10.993,7.51 -17.959,7.51l-313.469,0c-6.966,0 -12.952,-2.503 -17.959,-7.51c-5.007,-5.007 -7.51,-10.993 -7.51,-17.959l0,-391.837l-52.898,0l0,391.837c0,14.367 3.483,27.537 10.449,39.51c6.966,11.973 16.435,21.442 28.408,28.408c11.973,6.966 25.143,10.449 39.51,10.449Z" style="fill:#fff;"/><path d="M3140.831,661.571c-14.367,0 -27.537,-3.483 -39.51,-10.449c-11.973,-6.966 -21.442,-16.435 -28.408,-28.408c-6.966,-11.973 -10.449,-25.143 -10.449,-39.51l0,-18.286l52.898,0l0,18.286c0,6.966 2.503,12.952 7.51,17.959c5.007,5.007 10.993,7.51 17.959,7.51l313.469,0c6.966,0 12.952,-2.503 17.959,-7.51c5.007,-5.007 7.51,-10.993 7.51,-17.959l0,-105.143c0,-6.966 -2.503,-12.844 -7.51,-17.633c-5.007,-4.789 -10.993,-7.184 -17.959,-7.184l-313.469,0c-14.367,0 -27.537,-3.592 -39.51,-10.776c-11.973,-7.184 -21.442,-16.653 -28.408,-28.408c-6.966,-11.755 -10.449,-24.816 -10.449,-39.184l0,-105.143c0,-14.367 3.483,-27.537 10.449,-39.51c6.966,-11.973 16.435,-21.442 28.408,-28.408c11.973,-6.966 25.143,-10.449 39.51,-10.449l313.469,0c14.367,0 27.537,3.483 39.51,10.449c11.973,6.966 21.442,16.435 28.408,28.408c6.966,11.973 10.449,25.143 10.449,39.51l0,18.286l-52.898,0l0,-18.286c0,-6.966 -2.503,-12.952 -7.51,-17.959c-5.007,-5.007 -10.993,-7.51 -17.959,-7.51l-313.469,0c-6.966,0 -12.952,2.503 -17.959,7.51c-5.007,5.007 -7.51,10.993 -7.51,17.959l0,105.143c0,6.966 2.503,12.844 7.51,17.633c5.007,4.789 10.993,7.184 17.959,7.184l313.469,0c14.367,0 27.537,3.592 39.51,10.776c11.973,7.184 21.442,16.653 28.408,28.408c6.966,11.755 10.449,24.816 10.449,39.184l0,105.143c0,14.367 -3.483,27.537 -10.449,39.51c-6.966,11.973 -16.435,21.442 -28.408,28.408c-11.973,6.966 -25.143,10.449 -39.51,10.449l-313.469,0Z" style="fill:#fff;fill-rule:nonzero;"/><path d="M3140.831,662.571c-14.55,-0 -27.888,-3.53 -40.013,-10.585c-12.125,-7.055 -21.715,-16.644 -28.77,-28.77c-7.055,-12.125 -10.585,-25.463 -10.585,-40.013l0,-19.286l54.898,-0l0,19.286c0,6.692 2.407,12.442 7.217,17.252c4.81,4.81 10.56,7.217 17.252,7.217l313.469,0c6.692,0 12.442,-2.407 17.252,-7.217c4.81,-4.81 7.217,-10.56 7.217,-17.252l0,-105.143c0,-6.68 -2.4,-12.317 -7.201,-16.91c-4.814,-4.605 -10.57,-6.906 -17.268,-6.906l-313.469,0c-14.555,0 -27.896,-3.641 -40.025,-10.918c-12.119,-7.271 -21.703,-16.857 -28.754,-28.756c-7.057,-11.908 -10.589,-25.139 -10.589,-39.693l0,-105.143c0,-14.55 3.53,-27.888 10.585,-40.013c7.055,-12.125 16.644,-21.715 28.77,-28.77c12.125,-7.055 25.463,-10.585 40.013,-10.585l313.469,0c14.55,0 27.888,3.53 40.013,10.585c12.125,7.055 21.715,16.644 28.77,28.77c7.055,12.125 10.585,25.463 10.585,40.013l0,19.286l-54.898,0l-0,-19.286c0,-6.692 -2.407,-12.442 -7.217,-17.252c-4.81,-4.81 -10.56,-7.217 -17.252,-7.217l-313.469,0c-6.692,0 -12.442,2.407 -17.252,7.217c-4.81,4.81 -7.217,10.56 -7.217,17.252l0,105.143c0,6.68 2.4,12.317 7.201,16.91c4.814,4.605 10.57,6.906 17.268,6.906l313.469,0c14.555,0 27.896,3.641 40.025,10.918c12.119,7.271 21.703,16.857 28.754,28.756c7.057,11.908 10.589,25.139 10.589,39.693l0,105.143c0,14.55 -3.53,27.888 -10.585,40.013c-7.055,12.125 -16.644,21.715 -28.77,28.77c-12.125,7.055 -25.463,10.585 -40.013,10.585l-313.469,-0Zm0,-1l313.469,0c14.367,0 27.537,-3.483 39.51,-10.449c11.973,-6.966 21.442,-16.435 28.408,-28.408c6.966,-11.973 10.449,-25.143 10.449,-39.51l0,-105.143c0,-14.367 -3.483,-27.429 -10.449,-39.184c-6.966,-11.755 -16.435,-21.224 -28.408,-28.408c-11.973,-7.184 -25.143,-10.776 -39.51,-10.776l-313.469,0c-6.966,0 -12.952,-2.395 -17.959,-7.184c-5.007,-4.789 -7.51,-10.667 -7.51,-17.633l0,-105.143c0,-6.966 2.503,-12.952 7.51,-17.959c5.007,-5.007 10.993,-7.51 17.959,-7.51l313.469,0c6.966,0 12.952,2.503 17.959,7.51c5.007,5.007 7.51,10.993 7.51,17.959l0,18.286l52.898,0l0,-18.286c0,-14.367 -3.483,-27.537 -10.449,-39.51c-6.966,-11.973 -16.435,-21.442 -28.408,-28.408c-11.973,-6.966 -25.143,-10.449 -39.51,-10.449l-313.469,0c-14.367,0 -27.537,3.483 -39.51,10.449c-11.973,6.966 -21.442,16.435 -28.408,28.408c-6.966,11.973 -10.449,25.143 -10.449,39.51l0,105.143c0,14.367 3.483,27.429 10.449,39.184c6.966,11.755 16.435,21.224 28.408,28.408c11.973,7.184 25.143,10.776 39.51,10.776l313.469,0c6.966,0 12.952,2.395 17.959,7.184c5.007,4.789 7.51,10.667 7.51,17.633l0,105.143c0,6.966 -2.503,12.952 -7.51,17.959c-5.007,5.007 -10.993,7.51 -17.959,7.51l-313.469,0c-6.966,0 -12.952,-2.503 -17.959,-7.51c-5.007,-5.007 -7.51,-10.993 -7.51,-17.959l0,-18.286l-52.898,0l0,18.286c0,14.367 3.483,27.537 10.449,39.51c6.966,11.973 16.435,21.442 28.408,28.408c11.973,6.966 25.143,10.449 39.51,10.449Z" style="fill:#fff;"/><path d="M1686.748,799.279l0,51.422l-1607.379,0l-77.133,-64.278l0,-719.91l77.133,-64.278c0,0 1593.012,-0 1607.379,-0l0,51.422c-0.353,0 -1633.09,0 -1633.09,0l0,745.621l1633.09,0Z" style="fill:#fff;fill-rule:nonzero;"/><path d="M1687.748,851.701l-1608.741,0l-77.771,-64.809l0,-720.847l77.771,-64.809l1608.741,-0l-0,53.422l-1608.379,0l-24.711,0l0,743.621l1633.09,0l-0,53.422Zm-1,-52.422l-1633.09,0l0,-745.621l1633.09,-0l0,-51.422l-1607.379,0l-77.133,64.278l0,719.91l77.133,64.278l1607.379,-0l0,-51.422Z" style="fill:#fff;"/><path d="M2110.981,53.658l0,-51.422l1593.649,0l77.133,64.278l0,719.91l-77.133,64.278l-1606.505,0l0,-51.422c6.966,0 1632.216,-0 1632.216,-0l0,-745.621l-1619.36,-0Z" style="fill:#fff;fill-rule:nonzero;"/><path d="M2109.981,1.236l1595.011,-0l77.771,64.809l-0,720.847l-77.771,64.809l-1607.867,0l-0,-53.422l1607.505,0l24.711,-0l-0,-743.621l-1619.36,0l-0,-53.422Zm1,52.422l1619.36,0l0,745.621l-1632.216,0l0,51.422l1606.505,0l77.133,-64.278l0,-719.91l-77.133,-64.278l-1593.649,0l0,51.422Z" style="fill:#fff;"/></g></svg>