<?xml version="1.0" encoding="UTF-8" standalone="no"?><!DOCTYPE svg PUBLIC "-//W3C//DTD SVG 1.1//EN" "http://www.w3.org/Graphics/SVG/1.1/DTD/svg11.dtd"><svg width="100%" height="100%" viewBox="0 0 5999 1419" version="1.1" xmlns="http://www.w3.org/2000/svg" xmlns:xlink="http://www.w3.org/1999/xlink" xml:space="preserve" xmlns:serif="http://www.serif.com/" style="fill-rule:evenodd;clip-rule:evenodd;stroke-linejoin:round;stroke-miterlimit:2;"><g><path d="M469.306,1076.795l0,-734.694l113.265,0l538.776,640.816l0,-640.816l82.653,0l0,734.694l-113.265,0l-538.776,-640.816l0,640.816l-82.653,0Z" style="fill-rule:nonzero;"/><path d="M448.473,321.268l143.801,-0l508.24,604.497l0,-604.497l124.32,0l0,776.361l-143.801,0l-508.24,-604.497l-0,604.497l-124.32,0l-0,-776.361Zm20.833,755.527l82.653,0l0,-640.816l538.776,640.816l113.265,0l0,-734.694l-82.653,0l0,640.816l-538.776,-640.816l-113.265,0l0,734.694Z"/><path d="M1646.449,1076.795l0,-734.694l670.408,0l0,82.653l-587.755,0l0,242.857l472.449,0l0,83.673l-472.449,0l0,242.857l587.755,0l0,82.653l-670.408,0Z" style="fill-rule:nonzero;"/><path d="M1625.616,321.268l712.075,0l-0,124.32l-587.755,0l0,201.19l472.449,0l-0,125.34l-472.449,0l0,201.19l587.755,0l-0,124.32l-712.075,0l-0,-776.361Zm20.833,755.527l670.408,0l0,-82.653l-587.755,0l0,-242.857l472.449,0l0,-83.673l-472.449,0l0,-242.857l587.755,0l0,-82.653l-670.408,0l0,734.694Z"/><path d="M2638.462,1372.312l0,-82.356l306.114,-580.508l-306.114,-582.516l0,-80.347l80.347,-0l40.174,80.347l239.675,485.849l242.407,-485.849l40.174,-80.347l80.347,-0l0,80.347l-309.867,582.516l309.867,582.516l0,80.347l-80.347,-0l-40.174,-80.347l-242.407,-485.849l-239.675,485.849l-40.174,80.347l-80.347,0Z" style="fill-rule:nonzero;"/><path d="M2617.628,1284.8l303.404,-575.368l-303.404,-577.359l0,-106.321l114.056,-0l45.957,91.913l221.122,448.24l223.664,-448.282l45.936,-91.871l114.056,-0l-0,106.377l-307.102,577.32l307.102,577.32l-0,106.377l-114.056,-0l-45.936,-91.871l-223.664,-448.282l-221.122,448.24l-45.957,91.913l-114.056,0l0,-108.346Zm20.833,87.512l80.347,0l40.174,-80.347l239.675,-485.849l242.407,485.849l40.174,80.347l80.347,0l-0,-80.347l-309.867,-582.516l309.867,-582.516l0,-80.347l-80.347,0l-40.174,80.347l-242.407,485.849l-239.675,-485.849l-40.174,-80.347l-80.347,0l-0,80.347l306.114,582.516l-306.114,580.508l0,82.356Z"/><path d="M3773.496,1076.795c-22.449,0 -43.027,-5.442 -61.735,-16.327c-18.707,-10.884 -33.503,-25.68 -44.388,-44.388c-10.884,-18.707 -16.327,-39.286 -16.327,-61.735l0,-612.245l82.653,0l0,612.245c0,10.884 3.912,20.238 11.735,28.061c7.823,7.823 17.177,11.735 28.061,11.735l489.796,0c10.884,0 20.238,-3.912 28.061,-11.735c7.823,-7.823 11.735,-17.177 11.735,-28.061l0,-612.245l82.653,0l0,612.245c0,22.449 -5.442,43.027 -16.327,61.735c-10.884,18.707 -25.68,33.503 -44.388,44.388c-18.707,10.884 -39.286,16.327 -61.735,16.327l-489.796,0Z" style="fill-rule:nonzero;"/><path d="M3773.496,1097.629c-26.264,0 -50.325,-6.419 -72.212,-19.153c-21.881,-12.731 -39.187,-30.037 -51.918,-51.918c-12.734,-21.886 -19.153,-45.948 -19.153,-72.212l0,-633.078l124.32,0l0,633.078c0,5.178 1.911,9.608 5.633,13.33c3.722,3.722 8.151,5.633 13.33,5.633l489.796,0c5.178,0 9.608,-1.911 13.33,-5.633c3.722,-3.722 5.633,-8.151 5.633,-13.33l0,-633.078l124.32,0l0,633.078c0,26.264 -6.419,50.325 -19.153,72.212c-12.731,21.881 -30.037,39.187 -51.918,51.918c-21.886,12.734 -45.948,19.153 -72.212,19.153l-489.796,0Zm0,-20.833l489.796,0c22.449,0 43.027,-5.442 61.735,-16.327c18.707,-10.884 33.503,-25.68 44.388,-44.388c10.884,-18.707 16.327,-39.286 16.327,-61.735l0,-612.245l-82.653,0l0,612.245c0,10.884 -3.912,20.238 -11.735,28.061c-7.823,7.823 -17.177,11.735 -28.061,11.735l-489.796,0c-10.884,0 -20.238,-3.912 -28.061,-11.735c-7.823,-7.823 -11.735,-17.177 -11.735,-28.061l0,-612.245l-82.653,0l0,612.245c0,22.449 5.442,43.027 16.327,61.735c10.884,18.707 25.68,33.503 44.388,44.388c18.707,10.884 39.286,16.327 61.735,16.327Z"/><path d="M4950.639,1076.795c-22.449,0 -43.027,-5.442 -61.735,-16.327c-18.707,-10.884 -33.503,-25.68 -44.388,-44.388c-10.884,-18.707 -16.327,-39.286 -16.327,-61.735l0,-28.571l82.653,0l0,28.571c0,10.884 3.912,20.238 11.735,28.061c7.823,7.823 17.177,11.735 28.061,11.735l489.796,0c10.884,0 20.238,-3.912 28.061,-11.735c7.823,-7.823 11.735,-17.177 11.735,-28.061l0,-164.286c0,-10.884 -3.912,-20.068 -11.735,-27.551c-7.823,-7.483 -17.177,-11.224 -28.061,-11.224l-489.796,0c-22.449,0 -43.027,-5.612 -61.735,-16.837c-18.707,-11.224 -33.503,-26.02 -44.388,-44.388c-10.884,-18.367 -16.327,-38.776 -16.327,-61.224l0,-164.286c0,-22.449 5.442,-43.027 16.327,-61.735c10.884,-18.707 25.68,-33.503 44.388,-44.388c18.707,-10.884 39.286,-16.327 61.735,-16.327l489.796,0c22.449,0 43.027,5.442 61.735,16.327c18.707,10.884 33.503,25.68 44.388,44.388c10.884,18.707 16.327,39.286 16.327,61.735l0,28.571l-82.653,0l0,-28.571c0,-10.884 -3.912,-20.238 -11.735,-28.061c-7.823,-7.823 -17.177,-11.735 -28.061,-11.735l-489.796,0c-10.884,0 -20.238,3.912 -28.061,11.735c-7.823,7.823 -11.735,17.177 -11.735,28.061l0,164.286c0,10.884 3.912,20.068 11.735,27.551c7.823,7.483 17.177,11.224 28.061,11.224l489.796,0c22.449,0 43.027,5.612 61.735,16.837c18.707,11.224 33.503,26.02 44.388,44.388c10.884,18.367 16.327,38.776 16.327,61.224l0,164.286c0,22.449 -5.442,43.027 -16.327,61.735c-10.884,18.707 -25.68,33.503 -44.388,44.388c-18.707,10.884 -39.286,16.327 -61.735,16.327l-489.796,0Z" style="fill-rule:nonzero;"/><path d="M4950.639,1097.629c-26.264,0 -50.325,-6.419 -72.212,-19.153c-21.881,-12.731 -39.187,-30.037 -51.918,-51.918c-12.734,-21.886 -19.153,-45.948 -19.153,-72.212l0,-49.405l124.32,-0l-0,49.405c0,5.178 1.911,9.608 5.633,13.33c3.722,3.722 8.151,5.633 13.33,5.633l489.796,0c5.178,0 9.608,-1.911 13.33,-5.633c3.722,-3.722 5.633,-8.151 5.633,-13.33l0,-164.286c0,-4.934 -1.756,-9.104 -5.302,-12.496c-3.807,-3.641 -8.364,-5.446 -13.661,-5.446l-489.796,0c-26.351,0 -50.494,-6.63 -72.453,-19.806c-21.752,-13.051 -38.936,-30.275 -51.592,-51.631c-12.776,-21.559 -19.237,-45.495 -19.237,-71.845l0,-164.286c0,-26.264 6.419,-50.325 19.153,-72.212c12.731,-21.881 30.037,-39.187 51.918,-51.918c21.886,-12.734 45.948,-19.153 72.212,-19.153l489.796,0c26.264,0 50.325,6.419 72.212,19.153c21.881,12.731 39.187,30.037 51.918,51.918c12.734,21.886 19.153,45.948 19.153,72.212l0,49.405l-124.32,-0l0,-49.405c0,-5.178 -1.911,-9.608 -5.633,-13.33c-3.722,-3.722 -8.151,-5.633 -13.33,-5.633l-489.796,0c-5.178,0 -9.608,1.911 -13.33,5.633c-3.722,3.722 -5.633,8.151 -5.633,13.33l0,164.286c0,4.934 1.756,9.104 5.302,12.496c3.807,3.641 8.364,5.446 13.661,5.446l489.796,0c26.351,0 50.494,6.63 72.453,19.806c21.752,13.051 38.936,30.275 51.592,51.631c12.776,21.559 19.237,45.495 19.237,71.845l0,164.286c0,26.264 -6.419,50.325 -19.153,72.212c-12.731,21.881 -30.037,39.187 -51.918,51.918c-21.886,12.734 -45.948,19.153 -72.212,19.153l-489.796,0Zm0,-20.833l489.796,0c22.449,0 43.027,-5.442 61.735,-16.327c18.707,-10.884 33.503,-25.68 44.388,-44.388c10.884,-18.707 16.327,-39.286 16.327,-61.735l0,-164.286c0,-22.449 -5.442,-42.857 -16.327,-61.224c-10.884,-18.367 -25.68,-33.163 -44.388,-44.388c-18.707,-11.224 -39.286,-16.837 -61.735,-16.837l-489.796,0c-10.884,0 -20.238,-3.741 -28.061,-11.224c-7.823,-7.483 -11.735,-16.667 -11.735,-27.551l0,-164.286c0,-10.884 3.912,-20.238 11.735,-28.061c7.823,-7.823 17.177,-11.735 28.061,-11.735l489.796,0c10.884,0 20.238,3.912 28.061,11.735c7.823,7.823 11.735,17.177 11.735,28.061l0,28.571l82.653,0l0,-28.571c0,-22.449 -5.442,-43.027 -16.327,-61.735c-10.884,-18.707 -25.68,-33.503 -44.388,-44.388c-18.707,-10.884 -39.286,-16.327 -61.735,-16.327l-489.796,0c-22.449,0 -43.027,5.442 -61.735,16.327c-18.707,10.884 -33.503,25.68 -44.388,44.388c-10.884,18.707 -16.327,39.286 -16.327,61.735l0,164.286c0,22.449 5.442,42.857 16.327,61.224c10.884,18.367 25.68,33.163 44.388,44.388c18.707,11.224 39.286,16.837 61.735,16.837l489.796,0c10.884,0 20.238,3.741 28.061,11.224c7.823,7.483 11.735,16.667 11.735,27.551l0,164.286c0,10.884 -3.912,20.238 -11.735,28.061c-7.823,7.823 -17.177,11.735 -28.061,11.735l-489.796,0c-10.884,0 -20.238,-3.912 -28.061,-11.735c-7.823,-7.823 -11.735,-17.177 -11.735,-28.061l0,-28.571l-82.653,0l0,28.571c0,22.449 5.442,43.027 16.327,61.735c10.884,18.707 25.68,33.503 44.388,44.388c18.707,10.884 39.286,16.327 61.735,16.327Z"/><path d="M2678.635,1291.965l0,80.347l-2511.53,0l-120.521,-100.434l0,-1124.859l120.521,-100.434c0,0 2489.081,-0 2511.53,-0l0,80.347c-0.551,0 -2551.703,0 -2551.703,0l0,1165.033l2551.703,0Z" style="fill-rule:nonzero;"/><path d="M2699.469,1393.145l-2539.906,0l-133.811,-111.509l-0,-1144.375l133.811,-111.509l2539.906,-0l0,122.014l-2532.363,0l-19.34,0l0,1123.366l2551.703,0l0,122.014Zm-20.833,-101.18l-2551.703,0l0,-1165.033l2551.703,-0l0,-80.347l-2511.53,0l-120.521,100.434l0,1124.859l120.521,100.434l2511.53,0l0,-80.347Z"/><path d="M3341.499,126.932l0,-80.347l2490.077,0l120.521,100.434l0,1124.859l-120.521,100.434c0,0 -2487.715,0 -2510.164,0l0,-80.347c10.884,0 2550.337,-0 2550.337,-0l0,-1165.033l-2530.251,-0Z" style="fill-rule:nonzero;"/><path d="M3320.665,25.751l2518.453,0l133.811,111.509l0,1144.375l-133.811,111.509l-2538.54,0l-0,-122.014l2530.997,0l19.34,-0l-0,-1123.366l-2530.251,-0l-0,-122.014Zm20.833,101.18l2530.251,0l0,1165.033l-2550.337,0l0,80.347l2510.164,0l120.521,-100.434l0,-1124.859l-120.521,-100.434l-2490.077,0l0,80.347Z"/></g></svg>