<?xml version="1.0" encoding="UTF-8" standalone="no"?>
<!DOCTYPE svg PUBLIC "-//W3C//DTD SVG 1.1//EN" "http://www.w3.org/Graphics/SVG/1.1/DTD/svg11.dtd">
<svg width="100%" height="100%" viewBox="0 0 2595 650" version="1.1" xmlns="http://www.w3.org/2000/svg" xmlns:xlink="http://www.w3.org/1999/xlink" xml:space="preserve" xmlns:serif="http://www.serif.com/" style="fill-rule:evenodd;clip-rule:evenodd;stroke-linejoin:round;stroke-miterlimit:2;">
    <g transform="matrix(1,0,0,1,-1182.837038,-1753.937008)">
        <g transform="matrix(1.197248,0,0,1,-148.306472,667.876002)">
            <path d="M1203.501,1626.864L1203.501,1194.864L1259.128,1194.864L1523.735,1571.664L1523.735,1194.864L1564.328,1194.864L1564.328,1626.864L1508.701,1626.864L1244.094,1250.064L1244.094,1626.864L1203.501,1626.864Z" style="fill-rule:nonzero;"/>
            <path d="M1621.459,1626.864L1621.459,1194.864L1950.715,1194.864L1950.715,1243.464L1662.052,1243.464L1662.052,1386.264L1894.085,1386.264L1894.085,1435.464L1662.052,1435.464L1662.052,1578.264L1950.715,1578.264L1950.715,1626.864L1621.459,1626.864Z" style="fill-rule:nonzero;"/>
            <g transform="matrix(1,0,0,1.503718,-0.973666,-710.678073)">
                <path d="M1999.326,1626.864L1999.326,1626.264L2150.673,1410.864L1999.326,1195.464L1999.326,1194.864L2051.446,1194.864L2177.234,1373.064L2302.521,1194.864L2354.641,1194.864L2354.641,1195.464L2203.294,1410.864L2355.142,1626.264L2355.142,1626.864L2302.521,1626.864L2177.234,1448.664L2051.446,1626.864L1999.326,1626.864Z" style="fill-rule:nonzero;"/>
            </g>
            <path d="M2470.407,1626.864C2459.381,1626.864 2449.275,1623.664 2440.087,1617.264C2430.899,1610.864 2423.633,1602.164 2418.287,1591.164C2412.941,1580.164 2410.269,1568.064 2410.269,1554.864L2410.269,1194.864L2450.862,1194.864L2450.862,1554.864C2450.862,1561.264 2452.783,1566.764 2456.625,1571.364C2460.467,1575.964 2465.061,1578.264 2470.407,1578.264L2710.958,1578.264C2716.304,1578.264 2720.898,1575.964 2724.74,1571.364C2728.582,1566.764 2730.503,1561.264 2730.503,1554.864L2730.503,1194.864L2771.096,1194.864L2771.096,1554.864C2771.096,1568.064 2768.423,1580.164 2763.078,1591.164C2757.732,1602.164 2750.466,1610.864 2741.278,1617.264C2732.09,1623.664 2721.984,1626.864 2710.958,1626.864L2470.407,1626.864Z" style="fill-rule:nonzero;"/>
            <path d="M2883.855,1626.864C2872.829,1626.864 2862.723,1623.664 2853.535,1617.264C2844.348,1610.864 2837.081,1602.164 2831.735,1591.164C2826.39,1580.164 2823.717,1568.064 2823.717,1554.864L2823.717,1538.064L2864.31,1538.064L2864.31,1554.864C2864.31,1561.264 2866.231,1566.764 2870.073,1571.364C2873.915,1575.964 2878.509,1578.264 2883.855,1578.264L3124.407,1578.264C3129.752,1578.264 3134.346,1575.964 3138.188,1571.364C3142.03,1566.764 3143.951,1561.264 3143.951,1554.864L3143.951,1458.264C3143.951,1451.864 3142.03,1446.464 3138.188,1442.064C3134.346,1437.664 3129.752,1435.464 3124.407,1435.464L2883.855,1435.464C2872.829,1435.464 2862.723,1432.164 2853.535,1425.564C2844.348,1418.964 2837.081,1410.264 2831.735,1399.464C2826.39,1388.664 2823.717,1376.664 2823.717,1363.464L2823.717,1266.864C2823.717,1253.664 2826.39,1241.564 2831.735,1230.564C2837.081,1219.564 2844.348,1210.864 2853.535,1204.464C2862.723,1198.064 2872.829,1194.864 2883.855,1194.864L3124.407,1194.864C3135.432,1194.864 3145.538,1198.064 3154.726,1204.464C3163.914,1210.864 3171.18,1219.564 3176.526,1230.564C3181.872,1241.564 3184.544,1253.664 3184.544,1266.864L3184.544,1283.664L3143.951,1283.664L3143.951,1266.864C3143.951,1260.464 3142.03,1254.964 3138.188,1250.364C3134.346,1245.764 3129.752,1243.464 3124.407,1243.464L2883.855,1243.464C2878.509,1243.464 2873.915,1245.764 2870.073,1250.364C2866.231,1254.964 2864.31,1260.464 2864.31,1266.864L2864.31,1363.464C2864.31,1369.864 2866.231,1375.264 2870.073,1379.664C2873.915,1384.064 2878.509,1386.264 2883.855,1386.264L3124.407,1386.264C3135.432,1386.264 3145.538,1389.564 3154.726,1396.164C3163.914,1402.764 3171.18,1411.464 3176.526,1422.264C3181.872,1433.064 3184.544,1445.064 3184.544,1458.264L3184.544,1554.864C3184.544,1568.064 3181.872,1580.164 3176.526,1591.164C3171.18,1602.164 3163.914,1610.864 3154.726,1617.264C3145.538,1623.664 3135.432,1626.864 3124.407,1626.864L2883.855,1626.864Z" style="fill-rule:nonzero;"/>
            <g transform="matrix(0,1.800323,-0.835249,0,4277.279867,-3997.542153)">
                <path d="M2850.615,1266.864L2823.717,1266.864C2823.717,1253.664 2826.39,1241.564 2831.735,1230.564C2837.081,1219.564 2844.348,1210.864 2853.535,1204.464C2862.723,1198.064 2872.829,1194.864 2883.855,1194.864L3124.407,1194.864C3135.432,1194.864 3145.538,1198.064 3154.726,1204.464C3163.914,1210.864 3171.18,1219.564 3176.526,1230.564C3181.872,1241.564 3184.544,1253.664 3184.544,1266.864L3157.646,1266.864C3157.646,1260.464 3151.883,1250.364 3151.883,1250.364C3151.883,1250.364 3143.447,1243.464 3138.102,1243.464L2883.855,1243.464C2878.509,1243.464 2860.22,1245.764 2856.378,1250.364C2852.536,1254.964 2850.615,1260.464 2850.615,1266.864Z" style="fill-rule:nonzero;"/>
            </g>
            <g transform="matrix(0,-1.800323,0.835249,0,113.827201,6819.270464)">
                <path d="M2850.615,1266.864L2823.717,1266.864C2823.717,1253.664 2826.39,1241.564 2831.735,1230.564C2837.081,1219.564 2844.348,1210.864 2853.535,1204.464C2862.723,1198.064 2872.829,1194.864 2883.855,1194.864L3124.407,1194.864C3135.432,1194.864 3145.538,1198.064 3154.726,1204.464C3163.914,1210.864 3171.18,1219.564 3176.526,1230.564C3181.872,1241.564 3184.544,1253.664 3184.544,1266.864L3157.646,1266.864C3157.646,1260.464 3151.883,1250.364 3151.883,1250.364C3151.883,1250.364 3143.447,1243.464 3138.102,1243.464L2883.855,1243.464C2878.509,1243.464 2860.22,1245.764 2856.378,1250.364C2852.536,1254.964 2850.615,1260.464 2850.615,1266.864Z" style="fill-rule:nonzero;"/>
            </g>
        </g>
        <g transform="matrix(2.393684,0,0,1.602564,-1639.213925,-49.193988)">
            <rect x="1209.036" y="1125.154" width="439.148" height="30.217"/>
        </g>
        <g transform="matrix(2.393684,0,0,1.602564,-1639.213925,551.987114)">
            <rect x="1209.036" y="1125.154" width="439.148" height="30.217"/>
        </g>
        <g transform="matrix(2.501265,0,0,1.602564,-416.752983,-49.193988)">
            <rect x="1209.036" y="1125.154" width="439.148" height="30.217"/>
        </g>
        <g transform="matrix(2.501265,0,0,1.602564,-416.752983,551.987114)">
            <rect x="1209.036" y="1125.154" width="439.148" height="30.217"/>
        </g>
    </g>
</svg>
